<?xml version="1.0" standalone="no"?>
<!DOCTYPE svg PUBLIC "-//W3C//DTD SVG 20010904//EN"
 "http://www.w3.org/TR/2001/REC-SVG-20010904/DTD/svg10.dtd">
<svg version="1.0" xmlns="http://www.w3.org/2000/svg"
 width="2684.000000pt" height="1070.000000pt" viewBox="0 0 2684.000000 1070.000000"
 preserveAspectRatio="xMidYMid meet">

<g transform="translate(0.000000,1070.000000) scale(0.100000,-0.100000)"
fill="#000000" stroke="none">
<path d="M19890 10236 l-335 -103 0 -2234 c0 -2139 1 -2237 18 -2299 125 -441
585 -763 1087 -762 140 0 287 22 360 53 48 20 49 22 55 72 15 137 55 601 51
604 -2 3 -40 -17 -84 -42 -109 -63 -231 -105 -307 -105 -77 0 -171 23 -238 56
-108 55 -209 193 -236 322 -8 38 -11 702 -11 2297 0 1790 -3 2245 -12 2244 -7
0 -164 -47 -348 -103z"/>
<path d="M2700 9213 c-260 -25 -420 -57 -620 -123 -392 -129 -711 -324 -1014
-619 -217 -213 -381 -435 -514 -698 -358 -708 -374 -1510 -42 -2188 115 -234
246 -411 461 -622 210 -205 2133 -2023 2136 -2019 2 2 -7 26 -19 54 -20 45
-156 177 -1083 1055 -673 637 -1089 1038 -1138 1098 -209 251 -368 562 -447
876 -57 224 -65 303 -64 598 0 149 5 291 10 317 l9 47 349 -330 c192 -181 350
-328 352 -326 2 2 0 37 -6 78 -14 113 -12 335 6 460 56 406 243 779 539 1074
314 315 714 505 1147 546 351 34 750 -76 1047 -289 98 -70 133 -102 1736
-1621 715 -677 922 -867 965 -889 50 -24 65 -27 156 -26 92 1 108 4 168 32
210 98 293 368 163 531 -36 44 -2489 2368 -2606 2468 -269 229 -636 403 -1006
474 -200 39 -519 59 -685 42z"/>
<path d="M7930 9150 c-407 -32 -782 -159 -1116 -378 -216 -141 -302 -223 -838
-790 -157 -167 -286 -306 -285 -310 1 -7 274 -267 405 -386 62 -55 66 -58 83
-42 13 12 21 14 26 7 3 -6 12 -11 20 -11 7 0 171 166 364 369 193 203 381 396
418 430 315 287 792 451 1200 413 392 -38 732 -191 1008 -454 259 -247 420
-535 496 -886 33 -152 38 -449 11 -607 -50 -290 -154 -533 -323 -757 -32 -42
-270 -300 -529 -574 -381 -402 -469 -499 -458 -509 7 -7 114 -108 237 -224
214 -202 225 -211 242 -195 17 16 21 16 37 2 16 -15 108 80 1307 1346 1069
1129 1294 1372 1314 1417 20 42 25 71 25 129 1 66 -4 85 -32 143 -40 80 -106
139 -184 162 -77 22 -224 20 -290 -5 -68 -26 -85 -42 -338 -310 -117 -124
-216 -226 -221 -228 -5 -2 -9 23 -9 55 0 182 -65 483 -153 712 -304 791 -1036
1361 -1882 1465 -157 19 -403 27 -535 16z"/>
<path d="M12350 5900 l0 -2740 340 0 340 0 0 886 0 886 23 -5 c12 -2 83 -21
157 -40 229 -60 362 -79 590 -84 297 -8 495 25 733 121 612 248 1038 802 1131
1475 18 129 21 415 6 541 -53 425 -226 793 -509 1083 -242 249 -551 416 -897
486 -348 71 -838 38 -1267 -85 l-127 -36 -256 126 c-141 69 -258 126 -260 126
-2 0 -4 -1233 -4 -2740z m1550 2000 c456 -48 815 -315 986 -734 68 -167 94
-312 94 -526 0 -418 -152 -752 -443 -971 -210 -159 -446 -229 -766 -229 -258
0 -443 40 -640 140 l-81 40 2 1077 3 1077 125 43 c238 80 477 108 720 83z"/>
<path d="M21360 6745 l0 -1855 335 0 335 0 0 1400 0 1400 39 28 c57 41 252
136 342 166 181 61 516 79 672 38 159 -43 288 -137 366 -267 43 -70 94 -221
117 -345 17 -87 19 -188 22 -1257 l3 -1163 340 0 340 0 -3 1213 -3 1212 -28
139 c-15 76 -26 139 -25 140 2 1 26 20 53 42 180 146 375 238 593 281 121 23
373 24 460 0 249 -67 408 -261 471 -573 38 -187 41 -298 41 -1391 l0 -1063
340 0 340 0 0 1128 c0 1121 -4 1286 -36 1472 -58 343 -229 657 -446 820 -192
145 -415 216 -733 235 -208 13 -522 -23 -710 -80 -153 -46 -416 -167 -590
-270 l-77 -45 -71 66 c-139 129 -328 236 -487 277 -148 39 -267 51 -490 50
-351 0 -571 -47 -931 -198 l-65 -27 -252 141 c-139 78 -255 141 -257 141 -3 0
-5 -835 -5 -1855z"/>
<path d="M17347 8559 c-257 -21 -520 -70 -700 -130 -121 -40 -344 -141 -424
-192 l-43 -27 137 -274 136 -273 84 54 c167 109 394 198 618 242 306 60 544
52 703 -25 73 -36 166 -124 197 -189 47 -95 55 -145 55 -351 l0 -191 -257 -6
c-454 -10 -743 -57 -1013 -164 -500 -197 -760 -564 -760 -1074 0 -188 36 -335
128 -513 147 -287 425 -522 707 -597 186 -49 669 -27 1146 52 l186 31 263 -91
c144 -50 266 -91 271 -91 6 0 8 604 7 1508 l-3 1507 -23 80 c-47 166 -132 306
-260 427 -248 234 -635 330 -1155 287z m761 -2476 l-3 -558 -55 -22 c-176 -69
-725 -135 -872 -104 -234 49 -398 272 -398 541 0 353 242 585 690 664 134 24
258 33 463 35 l177 1 -2 -557z"/>
<path d="M4364 6279 c-674 -712 -728 -771 -804 -869 -317 -414 -482 -899 -482
-1420 -1 -482 126 -908 386 -1305 109 -166 296 -382 296 -343 0 9 2 22 5 30 3
7 -29 54 -71 103 -569 672 -705 1644 -343 2459 133 300 254 463 675 907 176
185 420 442 544 573 l225 237 7 -208 c5 -114 11 -318 15 -451 l8 -244 320 337
c176 186 321 341 323 345 1 3 -68 74 -155 156 -87 82 -190 179 -229 217 -65
62 -74 67 -92 56 -18 -11 -24 -10 -40 4 -18 16 -41 -7 -588 -584z"/>
<path d="M6956 5465 c-262 -67 -430 -333 -375 -597 18 -88 72 -187 136 -252
166 -168 1441 -1365 1483 -1394 67 -45 151 -72 235 -77 61 -4 64 -3 25 4 -67
13 -153 48 -198 81 -22 15 -370 341 -773 723 -754 714 -775 736 -814 847 -21
59 -37 174 -27 198 6 17 161 -126 991 -914 542 -514 990 -934 996 -934 23 0
129 41 173 66 105 62 187 167 224 287 17 57 20 86 15 170 -5 116 -26 181 -85
265 -43 61 -1461 1407 -1537 1459 -77 52 -161 74 -295 79 -80 2 -133 -1 -174
-11z"/>
<path d="M5749 4806 c-128 -37 -248 -132 -308 -245 -45 -84 -61 -149 -61 -247
0 -117 38 -229 106 -315 48 -59 1965 -1869 2019 -1906 63 -42 157 -72 249 -78
68 -4 69 -4 19 5 -74 14 -153 45 -206 83 -84 60 -1995 1877 -2030 1931 -52 78
-78 159 -84 256 l-5 85 43 -41 c24 -23 584 -551 1244 -1174 l1200 -1132 39 5
c68 9 166 66 236 136 136 138 180 321 121 511 -27 85 -66 141 -178 252 -249
245 -1881 1782 -1921 1808 -89 59 -144 73 -297 76 -94 2 -155 -1 -186 -10z"/>
<path d="M18578 4217 c-60 -28 -108 -53 -108 -57 0 -6 891 -2120 1026 -2436
33 -77 37 -81 91 -108 30 -15 56 -26 57 -24 1 2 184 463 407 1025 222 563 406
1023 409 1023 3 0 178 -446 389 -990 l385 -991 55 -31 c46 -26 56 -29 64 -17
5 8 257 585 561 1283 l552 1269 -105 52 c-58 29 -109 50 -113 46 -5 -5 -885
-2062 -919 -2150 -5 -13 -12 -22 -14 -19 -4 4 -752 2004 -799 2136 l-12 34
-49 -39 -50 -40 -404 -1047 c-223 -575 -408 -1043 -411 -1039 -4 5 -207 492
-450 1083 -244 591 -446 1078 -449 1081 -3 4 -54 -16 -113 -44z"/>
<path d="M25810 4259 c-151 -23 -371 -120 -508 -224 -40 -30 -76 -55 -78 -55
-3 0 -59 32 -124 70 -66 39 -126 73 -135 76 -13 6 -15 -123 -15 -1230 l0
-1236 135 0 135 0 0 947 0 946 47 76 c55 89 147 188 212 231 128 82 303 130
471 130 131 0 199 -14 291 -61 34 -17 65 -27 69 -22 14 14 140 240 140 251 0
14 -126 69 -200 87 -80 19 -349 28 -440 14z"/>
<path d="M14382 4239 c-132 -11 -371 -59 -485 -98 l-89 -30 -129 64 c-71 36
-131 65 -134 65 -3 0 -5 -873 -5 -1940 l0 -1940 130 0 130 0 0 695 c0 382 1
695 3 695 1 0 51 -16 111 -35 385 -123 762 -137 1052 -40 425 143 755 541 840
1015 36 200 19 478 -42 679 -146 480 -557 820 -1055 871 -113 11 -177 11 -327
-1z m268 -263 c431 -65 735 -342 852 -776 29 -109 36 -381 14 -505 -76 -411
-327 -689 -716 -792 -76 -20 -127 -26 -255 -30 -256 -8 -435 30 -647 136 l-93
46 -3 892 -2 892 47 21 c244 110 550 154 803 116z"/>
<path d="M17115 4240 c-175 -20 -308 -60 -469 -143 -353 -180 -604 -534 -672
-946 -13 -82 -15 -139 -11 -275 8 -237 42 -374 137 -562 235 -460 685 -720
1215 -701 358 13 641 132 875 367 249 249 380 574 380 945 0 579 -327 1062
-843 1244 -181 64 -425 92 -612 71z m326 -255 c454 -79 796 -469 839 -955 46
-528 -252 -987 -736 -1137 -83 -25 -101 -27 -274 -27 -164 -1 -194 2 -265 22
-385 111 -655 408 -741 812 -21 102 -24 331 -5 430 88 455 403 777 835 855 97
18 247 18 347 0z"/>
<path d="M23420 4239 c-167 -20 -353 -91 -494 -189 -152 -105 -310 -297 -391
-474 -87 -191 -125 -380 -125 -623 0 -261 45 -463 148 -668 63 -127 113 -196
215 -302 253 -262 578 -386 966 -370 227 9 427 60 624 158 100 50 260 150 273
170 5 8 -112 199 -122 199 -2 0 -41 -24 -86 -54 -169 -110 -345 -183 -507
-211 -106 -19 -307 -19 -404 -1 -103 20 -242 74 -339 132 -95 57 -241 191
-304 280 -61 85 -138 252 -165 354 -22 88 -38 313 -25 364 l6 26 1002 0 1001
0 -6 108 c-30 509 -308 897 -751 1048 -146 50 -363 72 -516 53z m390 -269
c276 -79 458 -290 545 -634 l23 -91 -826 -3 c-454 -1 -827 0 -829 2 -10 9 42
167 83 255 55 118 113 199 202 283 114 107 258 180 414 207 87 16 301 5 388
-19z"/>
<path d="M5179 3551 c-180 -58 -314 -207 -350 -389 -23 -122 5 -269 73 -374
26 -42 564 -557 1594 -1528 56 -54 127 -109 161 -127 69 -37 168 -63 233 -62
l45 1 -55 9 c-30 5 -91 27 -135 49 -76 37 -123 80 -896 812 -449 425 -827 787
-841 803 -39 48 -75 115 -92 175 -19 65 -26 179 -11 179 6 0 467 -433 1024
-962 558 -529 1039 -984 1068 -1010 l53 -49 57 17 c143 42 250 130 313 259 84
171 73 350 -33 514 -12 19 -353 347 -757 730 -404 383 -776 736 -827 784 -111
105 -149 130 -247 163 -64 21 -92 25 -198 24 -89 0 -138 -5 -179 -18z"/>
<path d="M4311 2655 c-84 -24 -150 -64 -222 -135 -72 -71 -109 -137 -135 -240
-31 -123 -4 -281 68 -393 37 -58 1514 -1461 1592 -1512 66 -43 153 -72 241
-79 l70 -5 -65 14 c-101 23 -181 68 -273 153 -234 217 -1398 1320 -1435 1360
-80 87 -123 186 -136 312 -4 30 -3 60 2 67 5 8 351 -313 1016 -942 l1009 -953
51 15 c204 60 336 212 366 421 18 131 -28 292 -111 387 -68 78 -1493 1421
-1545 1457 -96 65 -152 81 -304 85 -98 2 -150 -1 -189 -12z"/>
<path d="M14394 1186 c-61 -27 -101 -110 -88 -184 15 -84 45 -113 160 -158 51
-19 104 -47 117 -60 45 -45 45 -133 1 -175 -29 -27 -127 -39 -163 -19 -32 17
-61 70 -61 113 0 36 -1 37 -36 37 l-37 0 7 -46 c15 -110 86 -174 193 -174 124
0 195 65 196 179 1 112 -46 157 -237 226 -51 19 -76 55 -76 112 0 75 80 128
156 103 36 -12 74 -59 74 -92 0 -14 8 -18 34 -18 34 0 34 0 26 35 -12 53 -41
96 -80 116 -41 23 -140 25 -186 5z"/>
<path d="M14890 1150 c0 -38 2 -40 30 -40 28 0 30 2 30 40 0 38 -2 40 -30 40
-28 0 -30 -2 -30 -40z"/>
<path d="M16470 860 l0 -330 35 0 35 0 0 330 0 330 -35 0 -35 0 0 -330z"/>
<path d="M17950 860 l0 -330 35 0 35 0 0 196 0 196 29 29 c40 40 100 41 130 3
20 -25 21 -40 21 -225 l0 -199 30 0 30 0 0 210 c0 229 -5 255 -55 278 -54 25
-114 13 -162 -31 l-23 -20 0 111 0 112 -35 0 -35 0 0 -330z"/>
<path d="M19010 1150 c0 -38 2 -40 30 -40 28 0 30 2 30 40 0 38 -2 40 -30 40
-28 0 -30 -2 -30 -40z"/>
<path d="M21280 860 l0 -330 30 0 c26 0 30 4 30 28 l0 27 18 -21 c60 -75 171
-52 215 44 19 40 22 64 21 172 0 94 -4 134 -17 161 -41 91 -134 118 -202 58
l-35 -31 0 111 0 111 -30 0 -30 0 0 -330z m214 90 c33 -40 39 -77 34 -205 -3
-86 -7 -109 -24 -132 -42 -56 -103 -54 -141 3 -14 21 -19 53 -21 134 -6 163
21 230 92 230 26 0 41 -7 60 -30z"/>
<path d="M24050 860 l0 -330 30 0 30 0 0 330 0 330 -30 0 -30 0 0 -330z"/>
<path d="M24330 1150 c0 -39 1 -40 35 -40 34 0 35 1 35 40 0 39 -1 40 -35 40
-34 0 -35 -1 -35 -40z"/>
<path d="M24665 1165 c-21 -20 -25 -34 -25 -85 l0 -60 -40 0 c-36 0 -40 -2
-40 -25 0 -22 4 -25 40 -25 l40 0 0 -220 0 -220 30 0 30 0 0 220 0 220 40 0
c36 0 40 3 40 25 0 23 -4 25 -40 25 l-40 0 0 48 c0 55 12 72 52 72 23 0 28 4
28 25 0 23 -4 25 -45 25 -35 0 -52 -6 -70 -25z"/>
<path d="M22300 1085 l0 -65 -30 0 c-25 0 -30 -4 -30 -25 0 -21 5 -25 29 -25
l30 0 3 -205 c2 -145 7 -208 15 -216 7 -7 40 -15 74 -17 l61 -5 -4 29 c-3 26
-8 29 -40 32 l-38 3 0 190 0 189 40 0 c36 0 40 3 40 25 0 23 -4 25 -40 25
l-40 0 0 65 0 65 -35 0 -35 0 0 -65z"/>
<path d="M22650 1085 l0 -65 -35 0 c-31 0 -35 -3 -35 -25 0 -22 4 -25 35 -25
l35 0 0 -204 c0 -233 -2 -227 86 -234 l54 -4 0 30 c0 28 -3 31 -37 34 l-38 3
-3 188 -2 187 40 0 c36 0 40 2 40 25 0 23 -4 25 -40 25 l-40 0 0 65 0 65 -30
0 -30 0 0 -65z"/>
<path d="M15305 1021 c-11 -5 -29 -18 -39 -30 -25 -28 -36 -27 -36 4 0 21 -5
25 -30 25 l-30 0 0 -245 0 -245 30 0 30 0 0 175 c0 189 8 228 51 259 31 22 81
20 110 -3 24 -19 24 -23 27 -225 l3 -206 30 0 29 0 0 185 c0 121 4 193 12 210
24 52 110 73 148 35 19 -19 20 -33 20 -225 l0 -205 30 0 30 0 0 221 0 221 -29
29 c-24 24 -38 29 -76 29 -51 0 -77 -10 -116 -46 l-25 -24 -13 24 c-7 13 -24
29 -38 35 -28 13 -89 14 -118 2z"/>
<path d="M16047 1000 l-37 -32 0 26 c0 22 -4 26 -30 26 l-30 0 0 -330 0 -330
30 0 30 0 0 112 0 112 31 -30 c25 -24 39 -29 78 -29 61 0 97 24 124 83 19 40
22 65 22 172 0 109 -3 130 -21 165 -32 58 -57 77 -112 83 -44 4 -52 1 -85 -28z
m117 -50 c32 -39 41 -83 39 -192 -1 -100 -21 -153 -65 -178 -34 -18 -73 -6
-102 33 -16 22 -21 46 -24 122 -2 52 -1 115 2 140 15 98 96 138 150 75z"/>
<path d="M16811 1005 c-49 -42 -66 -103 -66 -235 0 -96 4 -123 22 -162 26 -56
59 -80 121 -85 78 -7 138 44 149 127 6 39 5 40 -24 40 -28 0 -31 -4 -37 -39
-7 -45 -44 -81 -83 -81 -34 0 -83 51 -83 87 0 15 -3 45 -6 66 l-7 37 123 0
123 0 -5 78 c-8 133 -54 192 -150 192 -35 0 -54 -6 -77 -25z m141 -55 c10 -14
21 -49 25 -78 l6 -52 -92 0 c-50 0 -91 2 -91 4 0 35 25 115 42 133 30 32 83
28 110 -7z"/>
<path d="M17533 1009 c-59 -38 -89 -143 -80 -280 9 -139 49 -195 145 -205 85
-9 150 44 159 130 6 46 6 46 -26 46 -29 0 -31 -2 -31 -36 0 -26 -8 -43 -29
-65 -33 -33 -65 -37 -100 -13 -38 27 -51 74 -51 188 0 111 8 147 42 184 47 49
138 11 138 -58 0 -27 3 -30 30 -30 25 0 30 4 30 25 0 40 -37 103 -70 120 -42
22 -118 19 -157 -6z"/>
<path d="M18550 1008 c-65 -44 -96 -156 -80 -296 15 -135 61 -187 165 -187 97
0 147 45 166 150 24 128 -4 269 -65 325 -40 36 -137 41 -186 8z m154 -58 c33
-39 39 -75 34 -203 -2 -88 -6 -110 -24 -134 -27 -35 -73 -50 -112 -34 -47 20
-65 63 -70 170 -7 159 26 231 107 231 31 0 44 -6 65 -30z"/>
<path d="M19362 1010 c-58 -36 -77 -94 -77 -240 0 -138 14 -185 67 -223 38
-28 114 -33 158 -10 39 20 80 89 80 135 0 24 -4 28 -29 28 -26 0 -29 -4 -34
-42 -14 -103 -135 -118 -168 -21 -15 42 -18 198 -6 254 14 69 72 106 132 83
19 -8 45 -55 45 -84 0 -16 6 -20 30 -20 23 0 30 4 30 20 0 35 -26 85 -59 113
-42 35 -118 38 -169 7z"/>
<path d="M19844 1011 c-62 -38 -94 -168 -76 -305 12 -93 37 -143 82 -168 94
-50 195 4 214 115 l7 38 -33 -3 c-29 -3 -33 -7 -39 -40 -7 -46 -22 -65 -58
-73 -68 -15 -111 38 -111 135 l0 50 121 0 122 0 -7 72 c-14 136 -59 198 -144
198 -28 0 -59 -8 -78 -19z m126 -56 c17 -18 25 -40 28 -80 l4 -55 -86 0 -86 0
0 35 c0 104 82 162 140 100z"/>
<path d="M20318 1014 c-37 -19 -58 -63 -58 -118 0 -62 34 -99 129 -142 81 -37
101 -55 101 -90 0 -56 -42 -94 -105 -94 -32 0 -73 36 -77 68 -2 21 -9 28 -30
30 -26 3 -28 0 -28 -30 0 -50 32 -95 77 -107 124 -35 223 18 223 119 0 88 -26
116 -142 160 -32 12 -65 31 -73 43 -21 31 -19 83 5 107 39 39 121 18 134 -35
5 -20 13 -25 36 -25 28 0 30 2 24 28 -11 44 -23 62 -57 82 -39 24 -120 26
-159 4z"/>
<path d="M21868 1014 c-61 -32 -96 -174 -79 -312 11 -89 36 -139 81 -164 94
-50 195 4 215 115 7 36 7 37 -24 37 -25 0 -32 -5 -37 -27 -16 -77 -48 -103
-106 -87 -43 12 -68 61 -68 132 l0 52 121 0 122 0 -7 70 c-12 136 -59 200
-144 200 -26 -1 -59 -8 -74 -16z m117 -51 c23 -23 35 -58 35 -104 l0 -39 -85
0 -85 0 0 28 c0 47 20 101 43 117 28 20 71 19 92 -2z"/>
<path d="M23026 1009 c-15 -11 -37 -40 -49 -62 -19 -37 -22 -57 -22 -172 0
-112 3 -135 21 -169 27 -52 62 -77 115 -83 80 -8 145 45 156 125 6 41 5 42
-24 42 -28 0 -31 -4 -37 -39 -7 -45 -44 -81 -83 -81 -29 0 -83 50 -83 78 0 10
-3 40 -6 66 l-7 46 123 0 123 0 -6 78 c-6 92 -33 154 -77 177 -43 22 -112 19
-144 -6z m123 -46 c21 -17 40 -74 41 -120 0 -22 -3 -23 -91 -23 l-90 0 7 48
c7 53 27 98 46 105 27 11 67 6 87 -10z"/>
<path d="M23603 1019 c-20 -6 -42 -24 -58 -47 l-25 -37 0 43 c0 40 -1 42 -30
42 l-30 0 0 -245 0 -245 30 0 30 0 0 171 c0 135 3 178 16 204 16 34 65 65 103
65 17 0 21 6 21 30 0 32 -5 34 -57 19z"/>
<path d="M25020 1018 c-63 -34 -96 -139 -87 -280 10 -156 53 -213 158 -213 47
0 62 4 84 25 35 33 55 72 55 110 0 27 -3 30 -30 30 -25 0 -30 -4 -30 -25 0
-81 -78 -122 -137 -71 -24 21 -28 32 -31 95 l-4 71 116 0 116 0 0 58 c0 75
-23 152 -55 182 -30 28 -116 38 -155 18z m122 -68 c10 -14 21 -49 25 -78 l6
-52 -88 0 -87 0 4 55 c6 71 36 107 87 103 22 -2 40 -11 53 -28z"/>
<path d="M14890 775 l0 -245 30 0 30 0 0 245 0 245 -30 0 -30 0 0 -245z"/>
<path d="M19010 775 l0 -245 30 0 30 0 0 245 0 245 -30 0 -30 0 0 -245z"/>
<path d="M24330 775 l0 -245 35 0 35 0 0 245 0 245 -35 0 -35 0 0 -245z"/>
<path d="M20760 570 c0 -34 3 -40 21 -40 19 0 21 -4 15 -32 -3 -17 -13 -39
-21 -48 -23 -26 -20 -43 6 -30 29 16 49 70 49 135 l0 55 -35 0 c-34 0 -35 -1
-35 -40z"/>
</g>
</svg>
